<?xml version="1.0" encoding="utf-8"?>
<!-- Generator: Adobe Illustrator 24.0.3, SVG Export Plug-In . SVG Version: 6.00 Build 0)  -->
<svg version="1.1" id="Шар_1" xmlns="http://www.w3.org/2000/svg" xmlns:xlink="http://www.w3.org/1999/xlink" x="0px" y="0px"
	 viewBox="0 0 100 100" style="enable-background:new 0 0 100 100;" xml:space="preserve">
<style type="text/css">
	.st0{fill:#ED1429;}
	.st1{fill:#FFFFFF;}
	.st2{fill:#FFFFFF;stroke:#FFFFFF;stroke-width:0.2372;stroke-miterlimit:10;}
	.st3{fill:#FFFFFF;stroke:#FFFFFF;stroke-width:0.25;stroke-miterlimit:10;}
</style>
<image style="display:none;overflow:visible;" width="225" height="208" xlink:href="../2020-04-22 18.58.37.jpg"  transform="matrix(0.4444 0 0 0.4444 -4.2957 -0.2692)">
</image>
<g>
	<circle class="st0" cx="50" cy="50" r="45.7"/>
	<g>
		<polygon class="st1" points="48.6,10.5 48.6,47.5 42.4,47.5 42.4,13.9 		"/>
		<path class="st1" d="M58.8,10.1v37.4h-1.8V10.1c-2.3-1.2-4.7-2.5-7-3.7c-2.6,1.5-5.1,3-7.7,4.6c-0.2-0.1-0.4-0.1-0.6-0.2
			c0-0.2,0.1-0.4,0.1-0.6c2.8-1.6,5.6-3.3,8.4-4.9C53,6.9,55.9,8.5,58.8,10.1z"/>
		<g>
			<path class="st1" d="M25,37.7c0,4.1,0,8.3,0,12.4c-0.8,0.4-1.7,0.8-2.5,1.2V39.8C23.3,39.1,24.2,38.4,25,37.7z"/>
			<path class="st1" d="M19.7,38c1.8-1.5,3.6-3,5.4-4.5c0.2,0,0.4,0,0.6,0.1c0,0.2,0,0.4,0,0.6c-1.6,1.3-3.1,2.6-4.7,3.9
				c0,4.9,0,9.8,0,14.6c-0.4,0-0.9,0-1.3,0C19.7,47.8,19.7,42.9,19.7,38z"/>
			<path class="st1" d="M33.5,23.4c0,8.2,0,16.5-0.1,24.7c-1,0.3-2.1,0.6-3.1,0.9c0-7.8,0-15.5,0-23.3C31.4,25,32.4,24.2,33.5,23.4z
				"/>
			<path class="st1" d="M27.2,50c0.4-0.3,0.9-0.6,1.3-0.8c0-8.3,0-16.6,0-24.9c1.9-1.6,3.9-3.2,5.8-4.8c1.5,0.7,2.9,1.5,4.4,2.2
				c0.3-0.1,0.5-0.1,0.8-0.2c-0.1-0.3-0.1-0.6-0.2-0.8c-1.7-0.9-3.4-1.7-5.1-2.6c-2.3,1.8-4.7,3.6-7,5.4
				C27.3,32.3,27.2,41.2,27.2,50z"/>
		</g>
		<g>
			<path class="st1" d="M75,37.5c0,4.1,0,8.3,0,12.4c0.8,0.4,1.7,0.8,2.5,1.2V39.6C76.7,38.9,75.8,38.2,75,37.5z"/>
			<path class="st1" d="M80.3,37.9c-1.8-1.5-3.6-3-5.4-4.5c-0.2,0-0.4,0-0.6,0.1c0,0.2,0,0.4,0,0.6c1.6,1.3,3.1,2.6,4.7,3.9
				c0,4.9,0,9.8,0,14.6c0.4,0,0.9,0,1.3,0C80.3,47.7,80.3,42.8,80.3,37.9z"/>
			<path class="st1" d="M66.5,23.3c0,8.2,0,16.5,0.1,24.7c1,0.3,2.1,0.6,3.1,0.9c0-7.8,0-15.5,0-23.3C68.6,24.8,67.6,24,66.5,23.3z"
				/>
			<path class="st1" d="M72.8,49.8c-0.4-0.3-0.9-0.6-1.3-0.8c0-8.3,0-16.6,0-24.9c-1.9-1.6-3.9-3.2-5.8-4.8
				c-1.5,0.7-2.9,1.5-4.4,2.2c-0.3-0.1-0.5-0.1-0.8-0.2c0.1-0.3,0.1-0.6,0.2-0.8c1.7-0.9,3.4-1.7,5.1-2.6c2.3,1.8,4.7,3.6,7,5.4
				C72.7,32.1,72.8,41,72.8,49.8z"/>
		</g>
	</g>
	<g>
		<g>
			<path class="st1" d="M21.8,57.6v2h-4.8C17.1,58.9,18.8,58.2,21.8,57.6z"/>
			<path class="st1" d="M49.7,51.1c8.5,0,16.1,1.2,21.1,3.1H28.6C33.6,52.4,41.2,51.1,49.7,51.1z"/>
			<path class="st1" d="M81.9,59.6h-4.8v-2C80.2,58.2,81.9,58.9,81.9,59.6z"/>
		</g>
		<g>
			<path class="st2" d="M30,59.7L29.3,62h-1.1l0.7-2.2l-1.4-4.1h1.2l0.8,2.7l0.8-2.7h1.1L30,59.7z"/>
			<path class="st2" d="M32.4,62v-6.2h3.4V62h-1.1v-5.3h-1.3V62H32.4z"/>
			<path class="st2" d="M40.7,58.3c0,0.3,0,0.6-0.1,0.8c-0.1,0.2-0.2,0.4-0.3,0.5s-0.3,0.2-0.5,0.3c-0.2,0-0.4,0.1-0.7,0.1h-0.5V62
				h-1.1v-6.2H39c0.3,0,0.5,0,0.7,0.1c0.2,0.1,0.4,0.1,0.5,0.3c0.1,0.1,0.3,0.3,0.3,0.5c0.1,0.2,0.1,0.4,0.1,0.7V58.3z M39.6,57.3
				c0-0.2,0-0.3-0.1-0.4c-0.1-0.1-0.2-0.1-0.5-0.1h-0.5v2.2h0.5c0.2,0,0.4,0,0.5-0.1s0.1-0.3,0.1-0.5V57.3z"/>
			<path class="st2" d="M42.8,55.7h1.5l1.2,6.3h-1.1l-0.2-1.1h-1.3L42.7,62h-1.1L42.8,55.7z M43,60h1l-0.5-3.2L43,60z"/>
			<path class="st2" d="M50.1,60.4c0,0.3,0,0.5-0.1,0.7c-0.1,0.2-0.2,0.4-0.3,0.5c-0.1,0.1-0.3,0.2-0.5,0.3
				c-0.2,0.1-0.5,0.1-0.7,0.1h-1.7v-6.2h1.7c0.3,0,0.5,0,0.7,0.1c0.2,0.1,0.4,0.2,0.5,0.3s0.2,0.3,0.3,0.4c0.1,0.2,0.1,0.4,0.1,0.6
				v0.4c0,0.3-0.1,0.6-0.2,0.8c-0.1,0.2-0.3,0.3-0.5,0.4c0.2,0.1,0.4,0.2,0.5,0.4c0.1,0.2,0.2,0.4,0.2,0.7V60.4z M48.9,57.2
				c0-0.1,0-0.2,0-0.2c0-0.1-0.1-0.1-0.1-0.2c0-0.1-0.1-0.1-0.2-0.1c-0.1,0-0.2,0-0.3,0h-0.5v1.6h0.5c0.1,0,0.2,0,0.3,0
				c0.1,0,0.2-0.1,0.2-0.1c0.1-0.1,0.1-0.1,0.1-0.2c0-0.1,0-0.2,0-0.3L48.9,57.2z M49,59.8c0-0.1,0-0.2,0-0.2c0-0.1-0.1-0.1-0.1-0.2
				s-0.1-0.1-0.2-0.1s-0.2,0-0.3,0h-0.6V61h0.6c0.1,0,0.2,0,0.3,0c0.1,0,0.1-0.1,0.2-0.1s0.1-0.1,0.1-0.2c0-0.1,0-0.2,0-0.3V59.8z"
				/>
			<path class="st2" d="M54,62v-5.3h-1.3v3.6c0,0.3,0,0.5-0.1,0.8s-0.1,0.4-0.3,0.5c-0.1,0.1-0.3,0.3-0.5,0.3
				c-0.2,0.1-0.5,0.1-0.8,0.1v-0.9c0.1,0,0.2,0,0.3-0.1c0.1,0,0.1-0.1,0.2-0.2s0.1-0.2,0.1-0.3c0-0.1,0-0.2,0-0.3v-4.6h3.5V62H54z"
				/>
			<path class="st2" d="M58.4,62v-2.4h-0.4c-0.1,0-0.1,0-0.2,0c-0.1,0-0.1,0.1-0.2,0.1c-0.1,0.1-0.1,0.1-0.2,0.3
				c0,0.1-0.1,0.2-0.1,0.4l-0.1,0.9c0,0.1,0,0.2,0,0.2c0,0.1,0,0.2-0.1,0.2s0,0.1-0.1,0.2s0,0.1,0,0.1H56c0.1-0.1,0.1-0.2,0.2-0.3
				c0.1-0.1,0.1-0.3,0.1-0.4l0.1-0.9c0-0.2,0-0.3,0.1-0.4c0-0.1,0.1-0.2,0.1-0.3s0.1-0.2,0.2-0.2c0.1-0.1,0.1-0.1,0.2-0.2
				c-0.2-0.1-0.4-0.3-0.5-0.5c-0.1-0.2-0.2-0.4-0.2-0.7v-0.7c0-0.3,0-0.5,0.1-0.7c0.1-0.2,0.2-0.4,0.3-0.5s0.3-0.2,0.5-0.3
				c0.2-0.1,0.5-0.1,0.7-0.1h1.7V62H58.4z M57.2,58c0,0.1,0,0.2,0,0.2c0,0.1,0.1,0.1,0.1,0.2c0.1,0.1,0.1,0.1,0.2,0.1
				c0.1,0,0.2,0,0.3,0h0.6v-1.9h-0.6c-0.1,0-0.2,0-0.3,0c-0.1,0-0.1,0.1-0.2,0.1c-0.1,0-0.1,0.1-0.1,0.2c0,0.1,0,0.2,0,0.3V58z"/>
			<path class="st2" d="M61.2,62v-6.2h1.1v2.7h0.8v-1c0-0.2,0-0.5,0.1-0.7c0-0.2,0.1-0.4,0.3-0.6c0.1-0.2,0.3-0.3,0.5-0.4
				c0.2-0.1,0.5-0.1,0.8-0.1s0.6,0,0.8,0.1c0.2,0.1,0.4,0.2,0.5,0.4c0.1,0.2,0.2,0.3,0.3,0.6c0,0.2,0.1,0.4,0.1,0.7v2.9
				c0,0.2,0,0.5-0.1,0.7c0,0.2-0.1,0.4-0.3,0.6s-0.3,0.3-0.5,0.4s-0.5,0.1-0.8,0.1c-0.3,0-0.6,0-0.8-0.1s-0.4-0.2-0.5-0.4
				s-0.2-0.3-0.3-0.6c0-0.2-0.1-0.4-0.1-0.7v-1h-0.8V62H61.2z M64.8,61.1C64.8,61.1,64.8,61.1,64.8,61.1
				C64.8,61.1,64.8,61.1,64.8,61.1c0.1,0,0.2,0,0.3-0.1s0.1-0.1,0.2-0.2s0.1-0.2,0.1-0.3c0-0.1,0-0.2,0-0.3v-2.9c0-0.1,0-0.2,0-0.3
				s0-0.2-0.1-0.3c0-0.1-0.1-0.1-0.2-0.2c-0.1,0-0.2-0.1-0.3-0.1c0,0,0,0,0,0c-0.1,0-0.2,0-0.3,0.1s-0.1,0.1-0.2,0.2
				c0,0.1-0.1,0.2-0.1,0.3c0,0.1,0,0.2,0,0.3v2.9c0,0.1,0,0.2,0,0.3s0,0.2,0.1,0.3c0,0.1,0.1,0.1,0.2,0.2S64.7,61.1,64.8,61.1z"/>
			<path class="st2" d="M69.1,55.7v2.8c0,0.1,0,0.2,0,0.3c0,0.1,0.1,0.2,0.1,0.3c0,0.1,0.1,0.1,0.2,0.2c0.1,0,0.2,0.1,0.3,0.1
				c0.1,0,0.2,0,0.3-0.1c0.1-0.1,0.1-0.1,0.2-0.2s0.1-0.2,0.1-0.3s0-0.2,0-0.3v-2.6h1.1V62h-1.1v-2.3c-0.1,0.2-0.2,0.3-0.3,0.4
				c-0.1,0.1-0.3,0.2-0.5,0.2c-0.3,0-0.5,0-0.7-0.1s-0.4-0.2-0.5-0.4c-0.1-0.2-0.2-0.3-0.3-0.6c0-0.2-0.1-0.4-0.1-0.7v-2.8H69.1z"/>
			<path class="st2" d="M73.7,55.7h1.5l1.2,6.3h-1.1l-0.2-1.1h-1.3L73.6,62h-1.1L73.7,55.7z M73.9,60h1l-0.5-3.2L73.9,60z"/>
			<path class="st2" d="M31.7,70v-6.2h1.1v2.6h0.4l1-2.6h1.2l-1.2,3.1l1.3,3.2h-1.2l-1.1-2.7h-0.4V70H31.7z"/>
			<path class="st2" d="M38,63.6C38,63.6,38,63.6,38,63.6c0.3,0,0.6,0,0.8,0.1c0.2,0.1,0.4,0.2,0.5,0.4s0.2,0.3,0.3,0.6
				c0,0.2,0.1,0.4,0.1,0.7v2.9c0,0.2,0,0.5-0.1,0.7c0,0.2-0.1,0.4-0.3,0.6c-0.1,0.2-0.3,0.3-0.5,0.4c-0.2,0.1-0.5,0.1-0.8,0.1l0,0v0
				c-0.3,0-0.6,0-0.8-0.1c-0.2-0.1-0.4-0.2-0.5-0.4c-0.1-0.2-0.2-0.3-0.3-0.6c0-0.2-0.1-0.4-0.1-0.7v-2.9c0-0.2,0-0.5,0.1-0.7
				c0-0.2,0.1-0.4,0.3-0.6s0.3-0.3,0.5-0.4C37.4,63.7,37.7,63.6,38,63.6L38,63.6z M38,69.1C38,69.1,38,69.1,38,69.1
				C38,69.1,38,69.1,38,69.1c0.1,0,0.2,0,0.3-0.1c0.1,0,0.1-0.1,0.2-0.2s0.1-0.2,0.1-0.3s0-0.2,0-0.3v-2.9c0-0.1,0-0.2,0-0.3
				s0-0.2-0.1-0.3c0-0.1-0.1-0.1-0.2-0.2c-0.1,0-0.2-0.1-0.3-0.1c0,0,0,0,0,0c-0.1,0-0.2,0-0.3,0.1c-0.1,0-0.1,0.1-0.2,0.2
				s-0.1,0.2-0.1,0.3s0,0.2,0,0.3v2.9c0,0.1,0,0.2,0,0.3s0,0.2,0.1,0.3c0,0.1,0.1,0.1,0.2,0.2S37.9,69.1,38,69.1z"/>
			<path class="st2" d="M42.1,65.4l0.1,4.6h-1.1v-6.2h1.4l0.9,3.8l0.9-3.8h1.4V70h-1.1l0.1-4.5L44,69.2H43L42.1,65.4z"/>
			<path class="st2" d="M47.4,70v-6.2h3.4V70h-1.1v-5.3h-1.3V70H47.4z"/>
			<path class="st2" d="M53.1,63.7h1.5l1.2,6.3h-1.1l-0.2-1.1h-1.3L53,70h-1.1L53.1,63.7z M53.3,68h1l-0.5-3.2L53.3,68z"/>
			<path class="st2" d="M57,70v-6.2h1.1v2.6h1.3v-2.6h1.1V70h-1.1v-2.7h-1.3V70H57z"/>
			<path class="st2" d="M62.1,70v-6.2h1.1V70H62.1z"/>
			<path class="st2" d="M66.6,70v-2.4h-0.4c-0.1,0-0.1,0-0.2,0c-0.1,0-0.1,0.1-0.2,0.1c-0.1,0.1-0.1,0.1-0.2,0.3
				c0,0.1-0.1,0.2-0.1,0.4l-0.1,0.9c0,0.1,0,0.2,0,0.2c0,0.1,0,0.2-0.1,0.2s0,0.1-0.1,0.2s0,0.1,0,0.1h-1.1c0.1-0.1,0.1-0.2,0.2-0.3
				c0.1-0.1,0.1-0.3,0.1-0.4l0.1-0.9c0-0.2,0-0.3,0.1-0.4c0-0.1,0.1-0.2,0.1-0.3s0.1-0.2,0.2-0.2c0.1-0.1,0.1-0.1,0.2-0.2
				c-0.2-0.1-0.4-0.3-0.5-0.5c-0.1-0.2-0.2-0.4-0.2-0.7v-0.7c0-0.3,0-0.5,0.1-0.7c0.1-0.2,0.2-0.4,0.3-0.5s0.3-0.2,0.5-0.3
				c0.2-0.1,0.5-0.1,0.7-0.1h1.7V70H66.6z M65.4,66c0,0.1,0,0.2,0,0.2c0,0.1,0.1,0.1,0.1,0.2c0.1,0.1,0.1,0.1,0.2,0.1
				c0.1,0,0.2,0,0.3,0h0.6v-1.9H66c-0.1,0-0.2,0-0.3,0c-0.1,0-0.1,0.1-0.2,0.1c-0.1,0-0.1,0.1-0.1,0.2c0,0.1,0,0.2,0,0.3V66z"/>
		</g>
		<g>
			<path class="st3" d="M31.4,80.8h-2.2l-0.8-2c-0.2-0.5-0.3-0.8-0.4-0.9s-0.2-0.2-0.4-0.2v3.1h-1.9v-7.9h1.9v3
				c0.2,0,0.3-0.1,0.4-0.2s0.2-0.5,0.4-1.2c0.1-0.5,0.3-0.8,0.4-1.1s0.4-0.4,0.7-0.5s0.9-0.1,1.6-0.1v1.7h-0.1
				c-0.3,0-0.6,0.1-0.7,0.2c-0.2,0.2-0.3,0.4-0.4,0.8c-0.1,0.4-0.2,0.6-0.3,0.8c-0.1,0.2-0.3,0.3-0.5,0.4c0.3,0.1,0.5,0.3,0.7,0.6
				c0.2,0.3,0.4,0.7,0.7,1.3L31.4,80.8z"/>
			<path class="st3" d="M38,72.9v7.9h-1.8v-4.4l-2.4,4.4H32v-7.9h1.8v4.4l2.4-4.4H38z"/>
			<path class="st3" d="M38.7,71h1.1v1.4h-1.1V71z M39.2,72.9h2v7.9h-2V72.9z M40.6,71h1.1v1.4h-1.1V71z"/>
			<path class="st3" d="M42.4,72.9h3.7c0.6,0,1.1,0.2,1.4,0.6c0.3,0.4,0.5,0.8,0.5,1.4c0,0.5-0.1,0.9-0.3,1.2
				c-0.2,0.2-0.4,0.4-0.7,0.5c0.5,0.1,0.8,0.4,1,0.7c0.2,0.3,0.3,0.8,0.3,1.3c0,0.4-0.1,0.8-0.2,1.1s-0.4,0.6-0.6,0.8
				c-0.2,0.1-0.4,0.2-0.7,0.3c-0.4,0.1-0.7,0.1-0.9,0.1h-3.4V72.9z M44.4,76h0.8c0.3,0,0.5-0.1,0.6-0.2c0.1-0.1,0.2-0.3,0.2-0.6
				c0-0.2-0.1-0.4-0.2-0.5c-0.1-0.1-0.3-0.2-0.6-0.2h-0.9V76z M44.4,79.1h1c0.3,0,0.6-0.1,0.7-0.2c0.1-0.1,0.2-0.4,0.2-0.6
				c0-0.2-0.1-0.4-0.2-0.6s-0.4-0.2-0.7-0.2h-1V79.1z"/>
			<path class="st3" d="M53.3,77.6l1.7,0.6c-0.1,0.6-0.3,1.1-0.5,1.5c-0.2,0.4-0.6,0.7-0.9,0.9c-0.4,0.2-0.8,0.3-1.4,0.3
				c-0.7,0-1.2-0.1-1.7-0.4c-0.4-0.3-0.8-0.7-1.1-1.3s-0.5-1.4-0.5-2.4c0-1.3,0.3-2.3,0.8-3c0.6-0.7,1.3-1.1,2.4-1.1
				c0.8,0,1.4,0.2,1.9,0.6c0.5,0.4,0.8,1,1,1.9l-1.7,0.5c-0.1-0.2-0.1-0.4-0.2-0.5c-0.1-0.2-0.2-0.3-0.4-0.4
				c-0.2-0.1-0.3-0.2-0.5-0.2c-0.4,0-0.8,0.2-1,0.7c-0.2,0.3-0.3,0.9-0.3,1.6c0,0.9,0.1,1.5,0.3,1.8c0.2,0.3,0.5,0.5,0.9,0.5
				c0.4,0,0.7-0.1,0.8-0.4C53.1,78.5,53.2,78.1,53.3,77.6z"/>
			<path class="st3" d="M57.7,75.9h1c1,0,1.7,0.2,2.1,0.6c0.5,0.4,0.7,1.1,0.7,2c0,0.7-0.2,1.3-0.6,1.7c-0.4,0.4-1,0.6-1.8,0.6h-3.4
				v-7.9h1.9V75.9z M57.7,79.1h1c0.6,0,0.9-0.3,0.9-0.8c0-0.5-0.3-0.7-0.9-0.7h-1V79.1z"/>
			<path class="st3" d="M68.2,80.8H66l-0.8-2c-0.2-0.5-0.3-0.8-0.4-0.9c-0.1-0.1-0.2-0.2-0.4-0.2v3.1h-1.9v-7.9h1.9v3
				c0.2,0,0.3-0.1,0.4-0.2c0.1-0.1,0.2-0.5,0.4-1.2c0.1-0.5,0.3-0.8,0.4-1.1s0.4-0.4,0.7-0.5c0.3-0.1,0.9-0.1,1.6-0.1v1.7h-0.1
				c-0.3,0-0.6,0.1-0.7,0.2c-0.2,0.2-0.3,0.4-0.4,0.8c-0.1,0.4-0.2,0.6-0.3,0.8s-0.3,0.3-0.5,0.4c0.3,0.1,0.5,0.3,0.7,0.6
				s0.4,0.7,0.7,1.3L68.2,80.8z"/>
			<path class="st3" d="M72.6,79.5h-2.2l-0.3,1.3h-2l2.4-7.9h2.1l2.4,7.9h-2L72.6,79.5z M72.2,77.8l-0.7-2.8l-0.7,2.8H72.2z"/>
		</g>
		<g>
			<rect x="21.2" y="72.7" class="st3" width="1.2" height="2.8"/>
			<rect x="23.3" y="72.7" class="st3" width="1.2" height="2.8"/>
		</g>
		<g>
			<rect x="22.9" y="55.6" class="st3" width="1.2" height="2.8"/>
			<rect x="25" y="55.6" class="st3" width="1.2" height="2.8"/>
		</g>
		<g>
			<rect x="79" y="72.7" class="st3" width="1.2" height="2.8"/>
			<rect x="81.1" y="72.7" class="st3" width="1.2" height="2.8"/>
		</g>
		<g>
			<rect x="74.3" y="72.7" class="st3" width="1.2" height="2.8"/>
			<rect x="76.4" y="72.7" class="st3" width="1.2" height="2.8"/>
		</g>
	</g>
</g>
<g id="Шар_2">
</g>
</svg>
